<svg xmlns="http://www.w3.org/2000/svg" viewBox="0 0 150.229 77.353">
  <path d="M2.44 38.983c1.23 1.927 1.35 5.28 1.78 7.48.423 2.167 2.113 6.096 1.15 8.26l1.864-.498c-2.73-2.197-3.417-8.78-4.07-12.033-1.302-6.5-1.494-13.12-.86-19.708.44-4.587 3.42-9.806 6.748-12.86 4.83-4.432 15.302-3.838 18.32 2.24.333.67 2.215.052 1.932-.52-4.648-9.36-18.977-6.077-24.36.718C.454 17.73-.128 25.258.02 32.168c.1 4.713.922 9.39 1.938 13.98.61 2.754 1.17 6.977 3.482 8.834.523.422 1.6.092 1.863-.498 1.075-2.42-.727-6.018-1.152-8.54-.41-2.446-.56-5.597-1.91-7.72-.35-.548-2.22.08-1.79.76z"/>
  <path d="M18.938 40.065c8.2-.03 18.084-4.053 20.697-12.738.797-2.65-2.492-3.25-4.307-3.258-4.23-.02-7.737.81-11.402 3-7.152 4.27-13.412 16.8-5.494 22.88 7.53 5.78 19.373.78 26.48-3.15 1.133-.63-.623-.69-1.152-.4-6.386 3.54-14.038 6.63-21.308 4.07-7.09-2.5-6.673-9.33-3.83-14.85 1.482-2.88 2.965-5.32 5.47-7.44 2.74-2.32 9.38-4.75 13.08-2.5 3.08 1.87-3.268 7.63-4.416 8.65-3.673 3.27-8.095 4.77-13.02 4.79-.607 0-2.093.93-.798.92zm28.85-13.78c1.382.49-.04 6.7-.215 7.805-.568 3.586-.114 7.406.186 11.005.5 6.062 1.47 12.088 1.66 18.172.13 4.245 2.36 8.975.99 13.207l1.81-.306c-3.03-3.764-2.8-10.452-3.32-15.116-.63-5.676-.76-11.396-1.39-17.074-.72-6.45-.06-13.685 1.72-19.906.96-3.344 2.87-7.338 6.94-6.91 5.12.537 7.9 5.827 9.06 10.23.87 3.338 1.1 9.356-1.8 11.942-.92.82-8.228 4.885-8.14 4.208.13-1.032-1.847-.798-1.96.125-.37 2.878 3 1.69 4.51 1.018 3.422-1.525 7.13-3.786 8.77-7.252 3.55-7.515-1.07-21.993-10.838-21.836-8.983.144-9.833 13.36-10.26 19.828-.428 6.445.442 12.67.872 19.108.26 3.905.474 7.852 1.23 11.697.76 3.908.18 7.53 2.812 10.812.42.523 1.59.366 1.81-.306 1.26-3.874-.115-8.13-.75-11.99-.48-2.925-.307-6.116-.674-9.092-.52-4.233-.968-8.472-1.27-12.727-.32-4.46-.02-8.387.493-12.76.18-1.518.71-4.568-1.18-5.242-.88-.312-2.27.943-1.1 1.36zm23.584 3.578c.152 3.687.88 7.308 1 11 .07 2.187 1.082 4.85.008 6.894l1.923-.41c-3.247-7.452-2.404-17.423-1.31-25.255.633-4.523 2.495-8.646 5.107-12.36 4.54-6.452 9.893-.665 11.27 4.13.153.53 2.08-.003 1.933-.517-2.486-8.65-10.873-9.354-15.78-2.383-3.454 4.91-4.55 10.688-4.98 16.55-.487 6.604-.865 14.167 1.83 20.35.246.567 1.716-.02 1.922-.41 1.003-1.913.294-4.528.05-6.56-.456-3.782-.885-7.74-1.042-11.548-.018-.44-1.957-.097-1.93.52zm26.93-4.518c-.667-6.357-8.08-3.163-10.804-.32-3.734 3.898-7.92 16.015-2.233 19.852 1.804 1.217 4.898.28 6.628-.545 3.756-1.795 5.44-5.083 6.723-8.853 1.56-4.59 2.256-8.07-.576-12.28-1.138-1.7-3.284-.44-4.443.37-.8.55 1.137.3 1.482.06 1.68-1.17 3.08 4.62 3.14 5.35.19 2.24-.81 4.73-1.52 6.82-.85 2.5-1.61 4.42-3.43 6.43-2.52 2.77-7.07 3.32-8.23-.75-1.04-3.63-.12-7.77 1.09-11.23.69-1.97 1.78-3.77 3.09-5.38 2.34-2.86 6.682-3.19 7.12.97.04.38 1.987.01 1.932-.52z"/>
  <path d="M110.77 14.438c-6.61 3.586-18.994 16.5-9.34 23.506 5.16 3.743 18.774 2.845 21.863-3.5.18-.367-1.66-.2-1.912.317-2.17 4.48-10.65 4.8-14.61 4.09-3.71-.65-6.17-3.43-6.58-7.01-.84-7.32 5.95-13.93 11.73-17.06 1.13-.61-.64-.59-1.13-.33z"/>
  <path d="M131.37 4.716c-.19.445-3.888 2.246-4.386 2.64-2.66 2.112-5.4 4.562-7.295 7.386-2.16 3.215-5.57 7.098-5.37 11.215.16 3.318 5.27 2.008 7.02 1.398 2.59-.907 8.02-4.177 10.52-1.793 3.4 3.243-4.26 12.685-6.31 14.86-.8.84 1.09.862 1.56.366 3.18-3.376 9.36-11.08 6.53-16-1.88-3.267-9.11.177-11.33 1.036-3.31 1.277-7.1 1.536-5.6-2.99.89-2.69 2.8-5.148 4.39-7.46.74-1.074 1.32-1.906 2.28-2.87 1.49-1.485 5.33-6.274 7.53-6.358 1.29-.05 1.9-.546 2.37-1.653.28-.66-1.66-.438-1.94.223z"/>
  <path d="M149.455.017c-4.07.527-6.35 3.837-9.124 6.612-1.72 1.72-7.5 6.08-5.61 9.19.34.56 1.53.64 2.09.62 3.28-.12 9.9-1.72 11.07 2.67.76 2.85-.88 8.02-2.02 10.5-1.5 3.27-4.11 7.68-7.12 9.65-.51.33-.41.93.25.93h1c.79 0 2.04-1.19.73-1.19-1.25-.07-1.17.02.25.27.8-.53 1.44-1.4 2.06-2.11 1.54-1.81 2.658-4.11 3.915-6.12 2.28-3.65 3.733-9.31 2.606-13.54-1.04-3.89-7.076-2.52-9.82-2.52-5.713 0-.94-4.85.97-6.758 2.13-2.13 5.36-6.65 8.55-7.06.975-.128 1.567-1.35.235-1.176z"/>
</svg>